<mxfile host="app.diagrams.net" agent="Mozilla/5.0 (Windows NT 10.0; Win64; x64) AppleWebKit/537.36 (KHTML, like Gecko) Chrome/131.0.0.0 Safari/537.36" version="25.0.3">
  <diagram id="C5RBs43oDa-KdzZeNtuy" name="Page-1">
    <mxGraphModel grid="0" page="1" gridSize="10" guides="1" tooltips="1" connect="1" arrows="1" fold="1" pageScale="1" pageWidth="1169" pageHeight="1654" math="0" shadow="0">
      <root>
        <mxCell id="WIyWlLk6GJQsqaUBKTNV-0" />
        <mxCell id="WIyWlLk6GJQsqaUBKTNV-1" parent="WIyWlLk6GJQsqaUBKTNV-0" />
        <mxCell id="b2VAnnWoaGz_S2y477U7-1" value="BDD" style="shape=umlFrame;whiteSpace=wrap;html=1;pointerEvents=0;" vertex="1" parent="WIyWlLk6GJQsqaUBKTNV-1">
          <mxGeometry x="80" y="-4920" width="892" height="688" as="geometry" />
        </mxCell>
        <mxCell id="Y77VN4EsxNP-Ssz4ouQv-11" style="edgeStyle=orthogonalEdgeStyle;rounded=0;orthogonalLoop=1;jettySize=auto;html=1;entryX=1;entryY=0.5;entryDx=0;entryDy=0;endArrow=classic;endFill=1;startArrow=classic;startFill=1;" edge="1" parent="WIyWlLk6GJQsqaUBKTNV-1" source="ZF2TVoBub6NUnELSvzkx-15" target="ZF2TVoBub6NUnELSvzkx-24">
          <mxGeometry relative="1" as="geometry" />
        </mxCell>
        <mxCell id="ZF2TVoBub6NUnELSvzkx-15" value="&lt;p style=&quot;margin:0px;margin-top:4px;text-align:center;&quot;&gt;&amp;lt;&amp;lt;Block&amp;gt;&amp;gt;&lt;br&gt;&lt;span style=&quot;text-wrap: nowrap;&quot;&gt;HTU21&lt;/span&gt;&lt;br&gt;&lt;/p&gt;&lt;hr&gt;&lt;p style=&quot;text-align: left; margin: 0px 0px 0px 8px;&quot;&gt;in signal: clock (SCL)&lt;/p&gt;&lt;p style=&quot;text-align: left; margin: 0px 0px 0px 8px;&quot;&gt;in&amp;nbsp;&lt;span style=&quot;background-color: initial;&quot;&gt;data: commands (SDA)&lt;/span&gt;&lt;/p&gt;&lt;p style=&quot;text-align: left; margin: 0px 0px 0px 8px;&quot;&gt;in energy: temperature&lt;/p&gt;&lt;p style=&quot;text-align: left; margin: 0px 0px 0px 8px;&quot;&gt;in moist:&amp;nbsp;humidity&lt;/p&gt;&lt;p style=&quot;text-align: left; margin: 0px 0px 0px 8px;&quot;&gt;out raw data: temperature&lt;/p&gt;&lt;p style=&quot;text-align: left; margin: 0px 0px 0px 8px;&quot;&gt;out raw data:&amp;nbsp;humidity&lt;/p&gt;&lt;p style=&quot;text-align: left; margin: 0px 0px 0px 8px;&quot;&gt;&lt;span style=&quot;background-color: initial;&quot;&gt;&lt;br&gt;&lt;/span&gt;&lt;/p&gt;" style="shape=rect;html=1;overflow=fill;whiteSpace=wrap;align=center;" vertex="1" parent="WIyWlLk6GJQsqaUBKTNV-1">
          <mxGeometry x="724" y="-4776" width="200" height="140" as="geometry" />
        </mxCell>
        <mxCell id="Y77VN4EsxNP-Ssz4ouQv-10" style="edgeStyle=orthogonalEdgeStyle;rounded=0;orthogonalLoop=1;jettySize=auto;html=1;entryX=0.5;entryY=0;entryDx=0;entryDy=0;" edge="1" parent="WIyWlLk6GJQsqaUBKTNV-1" source="ZF2TVoBub6NUnELSvzkx-16" target="ZF2TVoBub6NUnELSvzkx-24">
          <mxGeometry relative="1" as="geometry" />
        </mxCell>
        <mxCell id="ZF2TVoBub6NUnELSvzkx-16" value="&lt;p style=&quot;margin:0px;margin-top:4px;text-align:center;&quot;&gt;&amp;lt;&amp;lt;Block&amp;gt;&amp;gt;&lt;br&gt;&lt;span style=&quot;text-wrap: nowrap;&quot;&gt;PT550&lt;/span&gt;&lt;br&gt;&lt;/p&gt;&lt;hr&gt;&lt;p style=&quot;text-align: left; margin: 0px 0px 0px 8px;&quot;&gt;in light: Intensity&lt;/p&gt;&lt;p style=&quot;text-align: left; margin: 0px 0px 0px 8px;&quot;&gt;out data: Intensity&lt;/p&gt;" style="shape=rect;html=1;overflow=fill;whiteSpace=wrap;align=center;" vertex="1" parent="WIyWlLk6GJQsqaUBKTNV-1">
          <mxGeometry x="433" y="-4878" width="200" height="80" as="geometry" />
        </mxCell>
        <mxCell id="Y77VN4EsxNP-Ssz4ouQv-1" style="edgeStyle=orthogonalEdgeStyle;rounded=0;orthogonalLoop=1;jettySize=auto;html=1;entryX=0;entryY=0.5;entryDx=0;entryDy=0;" edge="1" parent="WIyWlLk6GJQsqaUBKTNV-1" source="ZF2TVoBub6NUnELSvzkx-18" target="ZF2TVoBub6NUnELSvzkx-23">
          <mxGeometry relative="1" as="geometry" />
        </mxCell>
        <mxCell id="Y77VN4EsxNP-Ssz4ouQv-2" style="edgeStyle=orthogonalEdgeStyle;rounded=0;orthogonalLoop=1;jettySize=auto;html=1;entryX=1;entryY=0.5;entryDx=0;entryDy=0;" edge="1" parent="WIyWlLk6GJQsqaUBKTNV-1" source="ZF2TVoBub6NUnELSvzkx-18" target="ZF2TVoBub6NUnELSvzkx-22">
          <mxGeometry relative="1" as="geometry" />
        </mxCell>
        <mxCell id="ZF2TVoBub6NUnELSvzkx-18" value="&lt;p style=&quot;margin:0px;margin-top:4px;text-align:center;&quot;&gt;&amp;lt;&amp;lt;Block&amp;gt;&amp;gt;&lt;br&gt;&lt;span style=&quot;background-color: rgb(255, 255, 255);&quot;&gt;Raspberry Pi ZW&lt;/span&gt;&lt;/p&gt;&lt;hr&gt;&lt;p style=&quot;text-align: left; margin: 0px 0px 0px 8px;&quot;&gt;in data:&amp;nbsp;&lt;span style=&quot;background-color: initial;&quot;&gt;light j&lt;/span&gt;&lt;span style=&quot;background-color: initial;&quot;&gt;ntensity&lt;/span&gt;&lt;/p&gt;&lt;p style=&quot;text-align: left; margin: 0px 0px 0px 8px;&quot;&gt;out signal: control left/right&lt;/p&gt;&lt;p style=&quot;text-align: left; margin: 0px 0px 0px 8px;&quot;&gt;out signal: up/down&lt;/p&gt;&lt;p style=&quot;text-align: left; margin: 0px 0px 0px 8px;&quot;&gt;&lt;br&gt;&lt;/p&gt;" style="shape=rect;html=1;overflow=fill;whiteSpace=wrap;align=center;" vertex="1" parent="WIyWlLk6GJQsqaUBKTNV-1">
          <mxGeometry x="433" y="-4476" width="200" height="95" as="geometry" />
        </mxCell>
        <mxCell id="Y77VN4EsxNP-Ssz4ouQv-3" style="edgeStyle=orthogonalEdgeStyle;rounded=0;orthogonalLoop=1;jettySize=auto;html=1;entryX=0.5;entryY=1;entryDx=0;entryDy=0;" edge="1" parent="WIyWlLk6GJQsqaUBKTNV-1" source="ZF2TVoBub6NUnELSvzkx-20" target="1Dns8b2Z1h7oduPiS9Ot-1">
          <mxGeometry relative="1" as="geometry" />
        </mxCell>
        <mxCell id="ZF2TVoBub6NUnELSvzkx-20" value="&lt;p style=&quot;margin:0px;margin-top:4px;text-align:center;&quot;&gt;&amp;lt;&amp;lt;Block&amp;gt;&amp;gt;&lt;br&gt;&lt;span style=&quot;text-wrap: nowrap; background-color: initial;&quot;&gt;Solar panel&lt;/span&gt;&lt;br&gt;&lt;/p&gt;&lt;hr&gt;&lt;p style=&quot;text-align: left; margin: 0px 0px 0px 8px;&quot;&gt;in energy: light&lt;/p&gt;&lt;p style=&quot;text-align: left; margin: 0px 0px 0px 8px;&quot;&gt;out energy: Voltage/current DC&lt;br&gt;&lt;/p&gt;" style="shape=rect;html=1;overflow=fill;whiteSpace=wrap;align=center;" vertex="1" parent="WIyWlLk6GJQsqaUBKTNV-1">
          <mxGeometry x="131" y="-4537" width="200" height="80" as="geometry" />
        </mxCell>
        <mxCell id="ZF2TVoBub6NUnELSvzkx-22" value="&lt;p style=&quot;margin:0px;margin-top:4px;text-align:center;&quot;&gt;&amp;lt;&amp;lt;Block&amp;gt;&amp;gt;&lt;br&gt;&lt;span style=&quot;text-wrap: nowrap;&quot;&gt;:Stepper motor&lt;/span&gt;&lt;br&gt;&lt;/p&gt;&lt;hr&gt;&lt;p style=&quot;text-align: left; margin: 0px 0px 0px 8px;&quot;&gt;in signal: control left/right&lt;/p&gt;" style="shape=rect;html=1;overflow=fill;whiteSpace=wrap;align=center;" vertex="1" parent="WIyWlLk6GJQsqaUBKTNV-1">
          <mxGeometry x="233" y="-4361" width="200" height="73" as="geometry" />
        </mxCell>
        <mxCell id="ZF2TVoBub6NUnELSvzkx-23" value="&lt;p style=&quot;margin:0px;margin-top:4px;text-align:center;&quot;&gt;&amp;lt;&amp;lt;Block&amp;gt;&amp;gt;&lt;br&gt;&lt;span style=&quot;text-wrap: nowrap;&quot;&gt;:Servo motor&lt;/span&gt;&lt;br&gt;&lt;/p&gt;&lt;hr&gt;&lt;p style=&quot;text-align: left; margin: 0px 0px 0px 8px;&quot;&gt;in signal: control up/down&lt;/p&gt;" style="shape=rect;html=1;overflow=fill;whiteSpace=wrap;align=center;" vertex="1" parent="WIyWlLk6GJQsqaUBKTNV-1">
          <mxGeometry x="633" y="-4359.5" width="200" height="70" as="geometry" />
        </mxCell>
        <mxCell id="Y77VN4EsxNP-Ssz4ouQv-5" style="edgeStyle=orthogonalEdgeStyle;rounded=0;orthogonalLoop=1;jettySize=auto;html=1;entryX=0.5;entryY=0;entryDx=0;entryDy=0;" edge="1" parent="WIyWlLk6GJQsqaUBKTNV-1" source="ZF2TVoBub6NUnELSvzkx-24" target="ZF2TVoBub6NUnELSvzkx-18">
          <mxGeometry relative="1" as="geometry" />
        </mxCell>
        <mxCell id="Y77VN4EsxNP-Ssz4ouQv-15" style="edgeStyle=orthogonalEdgeStyle;rounded=0;orthogonalLoop=1;jettySize=auto;html=1;" edge="1" parent="WIyWlLk6GJQsqaUBKTNV-1" source="ZF2TVoBub6NUnELSvzkx-24" target="Y77VN4EsxNP-Ssz4ouQv-12">
          <mxGeometry relative="1" as="geometry">
            <Array as="points">
              <mxPoint x="580" y="-4566" />
              <mxPoint x="811" y="-4566" />
            </Array>
          </mxGeometry>
        </mxCell>
        <mxCell id="ZF2TVoBub6NUnELSvzkx-24" value="&lt;p style=&quot;margin:0px;margin-top:4px;text-align:center;&quot;&gt;&amp;lt;&amp;lt;Block&amp;gt;&amp;gt;&lt;br&gt;&lt;span style=&quot;text-wrap-mode: nowrap; background-color: initial;&quot;&gt;ESP32&lt;/span&gt;&lt;br&gt;&lt;/p&gt;&lt;hr&gt;&lt;p style=&quot;text-align: left; margin: 0px 0px 0px 8px;&quot;&gt;in data: i&lt;span style=&quot;background-color: initial;&quot;&gt;ntensity&lt;/span&gt;&lt;/p&gt;&lt;p style=&quot;text-align: left; margin: 0px 0px 0px 8px;&quot;&gt;in&amp;nbsp;&lt;span style=&quot;background-color: initial;&quot;&gt;analog signal: ADC&lt;/span&gt;&lt;/p&gt;&lt;p style=&quot;text-align: left; margin: 0px 0px 0px 8px;&quot;&gt;in raw data: temperature&lt;/p&gt;&lt;p style=&quot;text-align: left; margin: 0px 0px 0px 8px;&quot;&gt;in raw data:&amp;nbsp;humidity&lt;/p&gt;&lt;p style=&quot;text-align: left; margin: 0px 0px 0px 8px;&quot;&gt;out data: light j&lt;span style=&quot;background-color: initial;&quot;&gt;ntensity&lt;/span&gt;&lt;/p&gt;&lt;p style=&quot;text-align: left; margin: 0px 0px 0px 8px;&quot;&gt;&lt;span style=&quot;background-color: initial;&quot;&gt;out all data:&amp;nbsp;&lt;/span&gt;&lt;span style=&quot;background-color: initial;&quot;&gt;temperature,&amp;nbsp;&lt;/span&gt;&lt;span style=&quot;background-color: initial;&quot;&gt;humidity &amp;amp; voltage/current&lt;/span&gt;&lt;/p&gt;&lt;p style=&quot;text-align: left; margin: 0px 0px 0px 8px;&quot;&gt;out signal: clock (SCL)&lt;/p&gt;&lt;p style=&quot;text-align: left; margin: 0px 0px 0px 8px;&quot;&gt;out data: commands (SDA)&lt;/p&gt;&lt;p style=&quot;text-align: left; margin: 0px 0px 0px 8px;&quot;&gt;out data: webclient&lt;/p&gt;&lt;p style=&quot;text-align: left; margin: 0px 0px 0px 8px;&quot;&gt;in/out net: wifi&lt;/p&gt;&lt;div&gt;&lt;br&gt;&lt;/div&gt;&lt;p style=&quot;text-align: left; margin: 0px 0px 0px 8px;&quot;&gt;&lt;span style=&quot;background-color: initial;&quot;&gt;&lt;br&gt;&lt;/span&gt;&lt;/p&gt;&lt;p style=&quot;text-align: left; margin: 0px 0px 0px 8px;&quot;&gt;&lt;span style=&quot;background-color: initial;&quot;&gt;&lt;br&gt;&lt;/span&gt;&lt;/p&gt;" style="shape=rect;html=1;overflow=fill;whiteSpace=wrap;align=center;" vertex="1" parent="WIyWlLk6GJQsqaUBKTNV-1">
          <mxGeometry x="433" y="-4730" width="200" height="211" as="geometry" />
        </mxCell>
        <mxCell id="Y77VN4EsxNP-Ssz4ouQv-16" style="edgeStyle=orthogonalEdgeStyle;rounded=0;orthogonalLoop=1;jettySize=auto;html=1;entryX=0;entryY=0.5;entryDx=0;entryDy=0;" edge="1" parent="WIyWlLk6GJQsqaUBKTNV-1" source="1Dns8b2Z1h7oduPiS9Ot-1" target="ZF2TVoBub6NUnELSvzkx-24">
          <mxGeometry relative="1" as="geometry" />
        </mxCell>
        <mxCell id="1Dns8b2Z1h7oduPiS9Ot-1" value="&lt;p style=&quot;margin:0px;margin-top:4px;text-align:center;&quot;&gt;&amp;lt;&amp;lt;Block&amp;gt;&amp;gt;&lt;br&gt;&lt;span style=&quot;text-wrap-mode: nowrap;&quot;&gt;Ina1 69 current sense breakout&lt;/span&gt;&lt;/p&gt;&lt;hr&gt;&lt;p style=&quot;text-align: left; margin: 0px 0px 0px 8px;&quot;&gt;in energy: voltage/current DC&lt;/p&gt;&lt;p style=&quot;text-align: left; margin: 0px 0px 0px 8px;&quot;&gt;out analog signal: ADC&lt;/p&gt;&lt;p style=&quot;text-align: left; margin: 0px 0px 0px 8px;&quot;&gt;&lt;br&gt;&lt;/p&gt;&lt;p style=&quot;text-align: left; margin: 0px 0px 0px 8px;&quot;&gt;&lt;br&gt;&lt;/p&gt;" style="shape=rect;html=1;overflow=fill;whiteSpace=wrap;align=center;" vertex="1" parent="WIyWlLk6GJQsqaUBKTNV-1">
          <mxGeometry x="131" y="-4684" width="200" height="86" as="geometry" />
        </mxCell>
        <mxCell id="Y77VN4EsxNP-Ssz4ouQv-12" value="&lt;p style=&quot;margin:0px;margin-top:4px;text-align:center;&quot;&gt;&amp;lt;&amp;lt;Block&amp;gt;&amp;gt;&lt;br&gt;&lt;span style=&quot;text-wrap-mode: nowrap;&quot;&gt;T-Display&lt;/span&gt;&lt;/p&gt;&lt;hr&gt;&lt;p style=&quot;text-align: left; margin: 0px 0px 0px 8px;&quot;&gt;in all data: temperature,&amp;nbsp;&lt;span style=&quot;background-color: initial;&quot;&gt;humidity &amp;amp; voltage/current&lt;/span&gt;&lt;/p&gt;&lt;p style=&quot;text-align: left; margin: 0px 0px 0px 8px;&quot;&gt;&lt;span style=&quot;background-color: initial;&quot;&gt;out display: all data&amp;nbsp;&lt;/span&gt;&lt;/p&gt;" style="shape=rect;html=1;overflow=fill;whiteSpace=wrap;align=center;" vertex="1" parent="WIyWlLk6GJQsqaUBKTNV-1">
          <mxGeometry x="711" y="-4514" width="200" height="96" as="geometry" />
        </mxCell>
      </root>
    </mxGraphModel>
  </diagram>
</mxfile>
